<svg width="62" height="62" viewBox="0 0 62 62" xmlns="http://www.w3.org/2000/svg"><title>powerbox_icn</title><g fill="none" fill-rule="evenodd"><path d="M57 61H5c-2.21 0-4-1.79-4-4V5c0-2.21 1.79-4 4-4h52c2.21 0 4 1.79 4 4v52c0 2.21-1.79 4-4 4z" stroke="#242424" stroke-width="2"/><path d="M32.417 16.272L21.28 30.38c-.52.656-.052 1.62.783 1.62H29l-2.236 11.18c-.203 1.014 1.08 1.63 1.746.84l12.105-14.376c.548-.65.086-1.644-.764-1.644H32l2.183-10.913c.206-1.03-1.115-1.64-1.766-.815" fill="#01C8B8"/><path d="M55 10c0 1.657-1.343 3-3 3s-3-1.343-3-3 1.343-3 3-3 3 1.343 3 3zM13 52c0 1.657-1.343 3-3 3s-3-1.343-3-3 1.343-3 3-3 3 1.343 3 3z" stroke="#B3B3B3" stroke-width="2" stroke-linecap="round" stroke-linejoin="round"/></g></svg>