<svg width="48" height="72" viewBox="0 0 48 72" xmlns="http://www.w3.org/2000/svg"><title>app_icn</title><g fill="none" fill-rule="evenodd"><path d="M21 65h6" stroke="#242424" stroke-width="2" stroke-linecap="round"/><path d="M43 71H5c-2.21 0-4-1.79-4-4V5c0-2.21 1.79-4 4-4h38c2.21 0 4 1.79 4 4v62c0 2.21-1.79 4-4 4z" stroke="#242424" stroke-width="2"/><path d="M1 9h46M9 59h30" stroke="#242424" stroke-width="2" stroke-linecap="round"/><path d="M37 31h-8c-1.104 0-2-.896-2-2v-8c0-1.104.896-2 2-2h8c1.104 0 2 .896 2 2v8c0 1.104-.896 2-2 2zM19 31h-8c-1.104 0-2-.896-2-2v-8c0-1.104.896-2 2-2h8c1.104 0 2 .896 2 2v8c0 1.104-.896 2-2 2zM19 49h-8c-1.104 0-2-.896-2-2v-8c0-1.104.896-2 2-2h8c1.104 0 2 .896 2 2v8c0 1.104-.896 2-2 2z" stroke="#B3B3B3" stroke-width="2" stroke-linecap="round" stroke-linejoin="round"/><path d="M37 50h-8c-1.657 0-3-1.343-3-3v-8c0-1.657 1.343-3 3-3h8c1.657 0 3 1.343 3 3v8c0 1.657-1.343 3-3 3" fill="#01C8B8"/></g></svg>