<?xml version="1.0" encoding="UTF-8" standalone="no"?>
<svg width="16px" height="13px" viewBox="0 0 16 13" version="1.1" xmlns="http://www.w3.org/2000/svg" xmlns:xlink="http://www.w3.org/1999/xlink">
    <!-- Generator: Sketch 47 (45396) - http://www.bohemiancoding.com/sketch -->
    <title>twitter_icn</title>
    <desc>Created with Sketch.</desc>
    <defs></defs>
    <g id="greenwallet" stroke="none" stroke-width="1" fill="none" fill-rule="evenodd">
        <g id="01a_greenwallet" transform="translate(-1317.000000, -6554.000000)">
            <g id="twitter_icn" transform="translate(1310.000000, 6545.000000)">
                <rect id="Rectangle-2" fill="#D8D8D8" opacity="0" x="0" y="0" width="30" height="30"></rect>
                <path d="M22.5320928,10.812205 C21.9700097,11.0623496 21.3735778,11.2266802 20.7627292,11.299705 C21.4037631,10.9143477 21.8832676,10.3094217 22.1122438,9.59720504 C21.5075606,9.95711881 20.8457298,10.210785 20.1554477,10.347205 C19.2018749,9.33164555 17.6858596,9.08224193 16.4573955,9.73882886 C15.2289314,10.3954158 14.5934848,11.7947282 14.9073355,13.152205 C12.4325855,13.0282634 10.1269229,11.8586593 8.56461704,9.93470504 C7.7482991,11.341435 8.16510674,13.1405905 9.51677454,14.044705 C9.02810752,14.0302317 8.54998245,13.8990857 8.12227616,13.662205 L8.12227616,13.699705 C8.131986,15.1573405 9.16103437,16.4089132 10.5888889,16.699705 C10.136563,16.822498 9.6621962,16.8404534 9.20188781,16.752205 C9.60487585,18.0047734 10.7582489,18.8633362 12.0733549,18.889705 C10.9832821,19.7469883 9.63633033,20.211986 8.24973031,20.209705 C7.99914514,20.2097291 7.74878456,20.194702 7.5,20.164705 C10.1943609,21.9049549 13.6245718,22.0310505 16.4393458,20.4933182 C19.2541198,18.9555859 21.0022739,16.0005104 20.9951456,12.792205 L20.9951456,12.394705 C21.5971511,11.9624766 22.1175614,11.426642 22.5320928,10.812205 L22.5320928,10.812205 Z" id="_Path_2" fill="#242424"></path>
            </g>
        </g>
    </g>
</svg>